<svg width="60" height="98" viewBox="0 0 60 98" fill="none" xmlns="http://www.w3.org/2000/svg">
<path d="M18.3345 66.5555C17.6241 67.7733 16.7615 68.9403 15.6959 70.0059C10.2159 75.4859 1.58984 75.7396 1.58984 75.7396C1.58984 75.7396 1.84354 67.1136 7.32361 61.6336C9.09955 59.8577 11.2307 58.5892 13.2603 57.7773" stroke="#219653" stroke-width="2" stroke-miterlimit="10" stroke-linecap="round" stroke-linejoin="round"/>
<path d="M42.8945 68.5865C43.3005 69.0939 43.7064 69.5506 44.1631 70.0073C49.6431 75.4873 58.2692 75.741 58.2692 75.741C58.2692 75.741 58.0154 67.1151 52.5354 61.6351C51.7235 60.8232 50.8609 60.1636 49.9983 59.5547" stroke="#219653" stroke-width="2" stroke-miterlimit="10" stroke-linecap="round" stroke-linejoin="round"/>
<path d="M49.9479 83.351C46.2437 83.351 43.25 80.3573 43.25 76.6532V67.9258" stroke="#219653" stroke-width="2" stroke-miterlimit="10" stroke-linejoin="round"/>
<path d="M18.5885 60.668V76.6513C18.5885 80.3554 15.5947 83.3491 11.8906 83.3491" stroke="#219653" stroke-width="2" stroke-miterlimit="10" stroke-linejoin="round"/>
<path d="M18.3867 59.5551C22.3953 65.5425 28.8902 70.1092 38.4803 70.1092C43.3515 70.1092 53.0938 59.9103 53.0938 45.3477" stroke="#219653" stroke-width="2" stroke-miterlimit="10"/>
<path d="M37.668 46.5622H40.8647C42.3361 46.5622 43.5032 45.3952 43.5032 43.9237C43.5032 42.4522 42.3361 41.2852 40.8647 41.2852" stroke="#219653" stroke-width="2" stroke-miterlimit="10" stroke-linecap="round" stroke-linejoin="round"/>
<path d="M30.2578 53.9727H38.3257H45.8861" stroke="#219653" stroke-width="2" stroke-miterlimit="10" stroke-linecap="round"/>
<path d="M32.7461 53.9727H43.9092C43.9092 53.9727 42.7421 57.829 39.1395 57.829C35.5369 57.7782 32.7461 53.9727 32.7461 53.9727Z" stroke="#219653" stroke-width="2" stroke-miterlimit="10" stroke-linejoin="round"/>
<path d="M53.1434 41.2866V45.2952C53.1434 45.2952 62.7335 31.3414 56.9998 17.0833C51.6212 3.58625 41.6759 5.56514 41.6759 5.56514C41.6759 5.56514 39.0373 3.2818 34.8766 1.96254C25.3372 -0.98042 14.4786 3.18032 8.59258 9.6244C3.82291 14.8507 2.14844 22.0051 2.14844 28.9566C2.14844 54.53 18.5886 60.6189 18.5886 60.6189V54.5807V32.4577C18.5886 29.2611 21.1764 26.6733 24.3731 26.6733H37.1092C40.2551 26.6733 42.8429 24.1363 42.8937 21.0411H43.0459C43.1474 24.1363 45.6844 26.6733 48.8304 26.6733H53.1434V34.3859" stroke="#219653" stroke-width="2" stroke-miterlimit="10" stroke-linecap="round" stroke-linejoin="round"/>
<path d="M21.0744 34.3867H36.0431C36.0431 34.3867 36.1446 35.4523 35.9417 36.7715C35.5357 39.1056 34.0135 42.353 28.9393 42.353C20.9222 42.4038 21.0744 34.3867 21.0744 34.3867Z" stroke="#219653" stroke-width="2" stroke-miterlimit="10" stroke-linejoin="round"/>
<path d="M54.8674 34.3867H42.4866C42.4866 34.3867 41.6747 42.4038 49.1844 42.4038C56.6434 42.4038 54.8674 34.3867 54.8674 34.3867Z" stroke="#219653" stroke-width="2" stroke-miterlimit="10" stroke-linejoin="round"/>
<path d="M29.5497 39.865C30.3064 39.865 30.9198 39.2516 30.9198 38.495C30.9198 37.7384 30.3064 37.125 29.5497 37.125C28.7931 37.125 28.1797 37.7384 28.1797 38.495C28.1797 39.2516 28.7931 39.865 29.5497 39.865Z" fill="#219653" stroke="#219653" stroke-width="2" stroke-miterlimit="10"/>
<path d="M36.043 34.3867H42.4364" stroke="#219653" stroke-width="2" stroke-miterlimit="10"/>
<path d="M21.0762 34.3867H18.6406" stroke="#219653" stroke-width="2" stroke-miterlimit="10"/>
<path d="M49.8462 83.3516C49.8462 83.3516 50.0492 90.2016 32.6449 90.2016C15.2407 90.2016 11.7902 83.3516 11.7902 83.3516H3.36719C3.36719 83.3516 4.88943 97.0008 32.6449 97.0008C56.6963 97.0008 57.153 83.3516 57.153 83.3516H49.8462Z" stroke="#219653" stroke-width="2" stroke-miterlimit="10"/>
<path d="M24.9805 37.125H33.5558" stroke="#219653" stroke-width="2" stroke-miterlimit="10" stroke-linecap="round" stroke-linejoin="round"/>
<path d="M49.7919 39.865C50.5485 39.865 51.1619 39.2516 51.1619 38.495C51.1619 37.7384 50.5485 37.125 49.7919 37.125C49.0353 37.125 48.4219 37.7384 48.4219 38.495C48.4219 39.2516 49.0353 39.865 49.7919 39.865Z" fill="#219653" stroke="#219653" stroke-width="2" stroke-miterlimit="10"/>
<path d="M46.4453 37.0234H53.1432" stroke="#219653" stroke-width="2" stroke-miterlimit="10" stroke-linecap="round"/>
<path d="M42.9947 20.9912C42.9947 14.9023 44.314 8.15382 41.2695 5.10938" stroke="#219653" stroke-width="2" stroke-miterlimit="10" stroke-linecap="round" stroke-linejoin="round"/>
</svg>
