<svg width="84" height="98" viewBox="0 0 84 98" fill="none" xmlns="http://www.w3.org/2000/svg">
<path d="M54.9113 72.8047C62.8209 74.7433 71.9711 77.1472 75.6157 79.1633C82.5172 82.8855 82.6722 89.7094 82.6722 89.7094C82.6722 89.7094 71.1181 96.9986 42.039 96.9986C12.9598 96.9986 1.32812 89.7094 1.32812 89.7094C1.32812 89.7094 1.48321 82.8855 8.38467 79.1633C11.9517 77.2247 20.6367 74.8209 28.3136 72.9598" stroke="#219653" stroke-width="1.9998" stroke-miterlimit="10" stroke-linejoin="round"/>
<path d="M54.5219 65.9053V76.2962C54.5219 76.2962 50.4896 79.4755 41.3394 79.4755C32.1116 79.4755 28.2344 76.2962 28.2344 76.2962V54.8164" stroke="#219653" stroke-width="1.9998" stroke-miterlimit="10" stroke-linecap="round" stroke-linejoin="round"/>
<path d="M65.0703 39.8493C66.8538 39.4616 68.1721 37.9107 68.1721 36.0496C68.1721 34.1886 66.8538 32.6377 65.1479 32.25" stroke="#219653" stroke-width="1.9998" stroke-miterlimit="10" stroke-linejoin="round"/>
<path d="M24.2812 40.0827C25.1342 58.2281 37.8515 64.5868 41.2635 65.8275C45.9937 67.5335 51.6544 68.0763 55.9194 64.9745C59.564 62.2605 61.9678 58.1506 63.3636 53.8856C64.6044 50.0084 65.1472 45.9761 65.1472 41.9438C65.1472 41.9438 65.1472 29.5367 65.1472 21.3945" stroke="#219653" stroke-width="1.9998" stroke-miterlimit="10"/>
<path d="M48.5547 42.7982H51.8116C53.2849 42.7982 54.5256 41.5575 54.5256 40.0841C54.5256 38.6108 53.2849 37.3701 51.8116 37.3701H50.5708V32.0195" stroke="#219653" stroke-width="1.9998" stroke-miterlimit="10" stroke-linecap="round" stroke-linejoin="round"/>
<path d="M40.1017 33.3362C40.9582 33.3362 41.6526 32.6418 41.6526 31.7853C41.6526 30.9287 40.9582 30.2344 40.1017 30.2344C39.2451 30.2344 38.5508 30.9287 38.5508 31.7853C38.5508 32.6418 39.2451 33.3362 40.1017 33.3362Z" stroke="#219653" stroke-width="1.9998" stroke-miterlimit="10" stroke-linecap="round" stroke-linejoin="round"/>
<path d="M35.3711 30.2344H44.6764" stroke="#219653" stroke-width="1.9998" stroke-miterlimit="10" stroke-linecap="round" stroke-linejoin="round"/>
<path d="M60.7267 33.3362C61.5832 33.3362 62.2776 32.6418 62.2776 31.7853C62.2776 30.9287 61.5832 30.2344 60.7267 30.2344C59.8701 30.2344 59.1758 30.9287 59.1758 31.7853C59.1758 32.6418 59.8701 33.3362 60.7267 33.3362Z" stroke="#219653" stroke-width="1.9998" stroke-miterlimit="10" stroke-linecap="round" stroke-linejoin="round"/>
<path d="M56.0742 30.2344H64.2939" stroke="#219653" stroke-width="1.9998" stroke-miterlimit="10" stroke-linecap="round" stroke-linejoin="round"/>
<path d="M33.4297 27.0547H46.7673" stroke="#219653" stroke-width="1.9998" stroke-miterlimit="10" stroke-linecap="round" stroke-linejoin="round"/>
<path d="M53.3594 27.0547H65.1461" stroke="#219653" stroke-width="1.9998" stroke-miterlimit="10" stroke-linecap="round"/>
<path d="M25.6763 32.1728V35.042C27.77 33.8788 30.0963 32.6381 30.0963 27.5202V25.9693V25.8917V24.7286C30.6391 21.7819 33.1981 21.3942 34.1286 21.3942C34.2061 21.3942 34.3612 21.3942 34.4388 21.3942C34.4388 21.3942 39.4792 21.7819 40.3322 16.8966V15.4232V16.8966C41.1851 21.7819 46.3031 21.4717 46.3031 21.4717H65.0688C65.0688 21.4717 65.0688 21.4717 65.0688 21.3942C68.791 21.3942 71.8152 18.3699 71.8152 14.6478C71.8152 14.6478 66.6973 13.1744 62.5874 8.13405C59.8734 4.25683 54.6003 1 44.5971 1C38.8588 1 32.3451 0.99999 31.0268 8.21162C23.7377 7.35863 21.5664 13.3295 21.5664 16.2762C21.5664 19.2229 21.5664 22.5573 21.5664 25.504C21.5664 26.8998 22.1092 29.6139 22.7296 32.0953L25.6763 32.1728Z" stroke="#219653" stroke-width="1.9998" stroke-miterlimit="10" stroke-linecap="round" stroke-linejoin="round"/>
<path d="M41.6523 50.0859H49.8721H57.549" stroke="#219653" stroke-width="1.9998" stroke-miterlimit="10" stroke-linecap="round"/>
<path d="M44.1328 50.0859H55.5318C55.5318 50.0859 54.3687 53.9632 50.6465 53.9632C47.002 53.9632 44.1328 50.0859 44.1328 50.0859Z" stroke="#219653" stroke-width="1.9998" stroke-miterlimit="10"/>
<path d="M25.3317 40.2038H23.6605C21.3777 40.2038 19.5078 38.3339 19.5078 36.0511C19.5078 33.7683 21.3777 31.8984 23.6605 31.8984H25.3317V32.4493H23.6605C21.6784 32.4493 20.0587 34.069 20.0587 36.0511C20.0587 38.0332 21.6784 39.6529 23.6605 39.6529H25.3317V40.2038Z" stroke="#219653"/>
<path d="M31.0273 8.21094C33.974 8.21094 40.4102 9.52917 40.4102 15.2675" stroke="#219653" stroke-width="1.9998" stroke-miterlimit="10" stroke-linecap="round" stroke-linejoin="round"/>
</svg>
