<svg width="114" height="98" viewBox="0 0 114 98" fill="none" xmlns="http://www.w3.org/2000/svg">
<path d="M99.9531 61.5234C100.371 64.1113 100.621 67.2 100.704 70.706" stroke="#279653" stroke-width="1.9998" stroke-miterlimit="10" stroke-linecap="round"/>
<path d="M20.4819 75.7955C20.4819 75.0442 20.3984 74.2929 20.3984 73.4581C20.3984 62.1885 22.068 55.2599 27.1602 51.0859" stroke="#279653" stroke-width="1.9998" stroke-miterlimit="10"/>
<path d="M101.621 56.4305C104.125 56.4305 106.212 50.1696 106.212 42.3227C106.212 34.5592 104.209 28.2148 101.621 28.2148" stroke="#279653" stroke-width="1.9998" stroke-miterlimit="10" stroke-linejoin="round"/>
<path d="M96.6113 69.871C99.9505 70.7892 102.789 71.624 104.542 72.4588C112.639 76.4658 112.89 89.1545 112.89 89.1545C112.89 89.1545 99.1992 97.0014 64.8061 97.0014C30.4131 97.0014 16.7227 89.1545 16.7227 89.1545C16.7227 89.1545 16.8896 76.4658 25.0705 72.4588C27.2409 71.3736 30.9974 70.2883 35.4218 69.2031" stroke="#279653" stroke-width="1.9998" stroke-miterlimit="10"/>
<path d="M88.0991 44.9935C89.6852 44.4926 90.8539 42.99 90.8539 41.237C90.8539 39.4839 89.6852 37.8979 88.0156 37.4805" stroke="#279653" stroke-width="1.9998" stroke-miterlimit="10" stroke-linejoin="round"/>
<path d="M80.5 68.6179C83.0043 66.0301 84.8409 62.6909 85.9261 59.2683C87.1783 55.4283 87.6791 51.2544 87.6791 47.164V19.4492" stroke="#279653" stroke-width="1.9998" stroke-miterlimit="10"/>
<path d="M72.1523 48.0802H74.3228C75.8254 48.0802 77.0776 46.828 77.0776 45.3254C77.0776 43.8228 75.8254 42.5706 74.3228 42.5706H74.1558L73.0706 37.1445" stroke="#279653" stroke-width="1.9998" stroke-miterlimit="10" stroke-linecap="round" stroke-linejoin="round"/>
<path d="M62.4689 38.4808C63.3449 38.4808 64.055 37.7706 64.055 36.8947C64.055 36.0187 63.3449 35.3086 62.4689 35.3086C61.5929 35.3086 60.8828 36.0187 60.8828 36.8947C60.8828 37.7706 61.5929 38.4808 62.4689 38.4808Z" fill="#279653" stroke="#279653" stroke-width="1.6665" stroke-miterlimit="10" stroke-linecap="round" stroke-linejoin="round"/>
<path d="M57.6289 35.3945H67.0619" stroke="#279653" stroke-width="1.9998" stroke-miterlimit="10" stroke-linecap="round" stroke-linejoin="round"/>
<path d="M83.34 38.4808C84.216 38.4808 84.9261 37.7706 84.9261 36.8947C84.9261 36.0187 84.216 35.3086 83.34 35.3086C82.464 35.3086 81.7539 36.0187 81.7539 36.8947C81.7539 37.7706 82.464 38.4808 83.34 38.4808Z" fill="#279653" stroke="#279653" stroke-width="1.6665" stroke-miterlimit="10" stroke-linecap="round" stroke-linejoin="round"/>
<path d="M78.582 35.3945H86.9299" stroke="#279653" stroke-width="1.9998" stroke-miterlimit="10" stroke-linecap="round" stroke-linejoin="round"/>
<path d="M55.707 32.1367H69.2305" stroke="#279653" stroke-width="1.9998" stroke-miterlimit="10" stroke-linecap="round" stroke-linejoin="round"/>
<path d="M75.8281 32.1367H87.7655" stroke="#279653" stroke-width="1.9998" stroke-miterlimit="10" stroke-linecap="round"/>
<path d="M46.4414 37.2302C46.4414 37.2302 51.5336 37.5641 52.4518 32.6389V31.0528V30.9694V29.8007C52.9527 26.7955 55.624 26.4615 56.5423 26.4615C56.6258 26.4615 56.7927 26.4615 56.8762 26.4615C56.8762 26.4615 61.9684 26.7955 62.8032 21.8702V20.3676V21.8702C63.7214 26.7955 68.8136 26.4615 68.8136 26.4615H87.7632V20.1172" stroke="#279653" stroke-width="1.9998" stroke-miterlimit="10" stroke-linecap="round" stroke-linejoin="round"/>
<path d="M64.0547 55.4297H72.319H80.0825" stroke="#279653" stroke-width="1.9998" stroke-miterlimit="10" stroke-linecap="round"/>
<path d="M66.5586 55.4297H78.0786C78.0786 55.4297 76.9099 59.3532 73.1534 59.3532C69.3969 59.3532 66.5586 55.4297 66.5586 55.4297Z" stroke="#279653" stroke-width="1.9998" stroke-miterlimit="10" stroke-linejoin="round"/>
<path d="M47.7798 44.1602H45.6094V45.8297H47.7798C48.2807 45.8297 48.6146 45.4958 48.6146 44.9949C48.6146 44.4941 48.1972 44.1602 47.7798 44.1602Z" fill="#279653"/>
<path d="M48.6146 37.1473C48.6146 36.6464 48.2807 36.3125 47.7798 36.3125H45.6094V37.9821H47.7798C48.1972 37.9821 48.6146 37.6482 48.6146 37.1473Z" fill="#279653"/>
<path d="M18.5599 12.7722C21.4645 12.7722 23.819 10.4176 23.819 7.51303C23.819 4.60849 21.4645 2.25391 18.5599 2.25391C15.6554 2.25391 13.3008 4.60849 13.3008 7.51303C13.3008 10.4176 15.6554 12.7722 18.5599 12.7722Z" stroke="#279653" stroke-width="1.9998" stroke-miterlimit="10"/>
<path d="M21.732 11.6875L12.6328 22.7066" stroke="#279653" stroke-width="1.9998" stroke-miterlimit="10" stroke-linecap="round" stroke-linejoin="round"/>
<path d="M16.4733 2.66797L1.11328 6.09058" stroke="#279653" stroke-width="1.9998" stroke-miterlimit="10" stroke-linecap="round" stroke-linejoin="round"/>
<path d="M18.5588 7.51172L7.95703 13.2717" stroke="#279653" stroke-width="1.9998" stroke-miterlimit="10" stroke-linecap="round" stroke-linejoin="round"/>
<path d="M35.5067 62.4414C34.0041 76.1318 47.6946 83.3944 70.4841 83.3944C87.9311 83.3944 96.8633 76.7997 96.8633 66.031" stroke="#279653" stroke-width="1.9998" stroke-miterlimit="10" stroke-linecap="round"/>
<path d="M33.503 58.433C39.6804 71.0383 53.2039 77.2991 70.5674 77.2991C91.27 77.2991 103.458 65.1948 103.458 40.9861C103.458 16.6939 87.3465 1 66.6439 1C50.1152 1 36.5083 11.0174 31.75 27.3791L33.503 58.433ZM72.1535 69.7861C56.7935 69.7861 45.3569 61.7722 45.3569 45.6609C45.3569 29.5496 46.6926 17.7791 72.6543 17.7791C98.5326 17.7791 99.4509 29.5496 99.4509 45.6609C99.3674 61.7722 87.43 69.7861 72.1535 69.7861Z" stroke="#279653" stroke-width="1.9998" stroke-miterlimit="10" stroke-linejoin="round"/>
<path d="M30.7475 27.8815C32.2501 26.7128 33.7528 26.3789 34.9214 26.3789C37.7597 26.3789 40.0971 33.558 40.0971 42.4067C40.0971 51.2554 37.7597 58.4346 34.9214 58.4346C33.7528 58.4346 32.1667 58.1006 30.6641 56.8485" stroke="#279653" stroke-width="1.9998" stroke-miterlimit="10" stroke-linecap="round" stroke-linejoin="round"/>
<path d="M30.4155 56.4305C32.9512 56.4305 35.0068 50.1142 35.0068 42.3227C35.0068 34.5311 32.9512 28.2148 30.4155 28.2148C27.8798 28.2148 25.8242 34.5311 25.8242 42.3227C25.8242 50.1142 27.8798 56.4305 30.4155 56.4305Z" stroke="#279653" stroke-width="1.9998" stroke-miterlimit="10"/>
<path d="M49.8633 80.6367C53.4528 81.6385 55.7068 88.6506 55.7068 96.748" stroke="#279653" stroke-width="1.9998" stroke-miterlimit="10"/>
<path d="M87.8477 80.6367C91.1868 81.555 93.3572 87.4819 93.6911 94.7445" stroke="#279653" stroke-width="1.9998" stroke-miterlimit="10" stroke-linecap="round"/>
</svg>
