<svg width="100" height="98" viewBox="0 0 100 98" fill="none" xmlns="http://www.w3.org/2000/svg">
<path d="M91.1215 68.9173L87.2031 67.3662L92.5093 57.5703L94.1419 58.2234L91.1215 68.9173Z" stroke="#279653" stroke-width="1.9998" stroke-miterlimit="10"/>
<path d="M94.1445 58.2252C94.1445 58.2252 101.41 55.0415 97.0016 48.3477C97.0016 48.3477 95.6139 50.8783 94.6343 51.8579C93.0016 53.6538 91.6955 56.3477 92.5118 57.4905L94.1445 58.2252Z" stroke="#279653" stroke-width="1.9998" stroke-miterlimit="10"/>
<path d="M81.9824 68.9184L77.5742 67.7755L81.5742 57L83.3701 57.4082L81.9824 68.9184Z" stroke="#279653" stroke-width="1.9998" stroke-miterlimit="10"/>
<path d="M86.716 79.7754L86.9609 79.2856C88.2671 76.0203 89.5732 72.8366 90.5528 70.3876C90.7977 69.8978 90.9609 69.408 91.1242 68.9182L87.2058 67.3672C86.063 69.8978 84.512 73.8162 82.9609 77.7346" stroke="#279653" stroke-width="1.9998" stroke-miterlimit="10" stroke-linecap="round" stroke-linejoin="round"/>
<path d="M79.9422 75.8551C81.2483 71.202 81.983 68.8347 81.983 68.8347L77.5749 67.7734C77.5749 67.7734 77.0034 70.4673 76.1055 74.6306" stroke="#279653" stroke-width="1.9998" stroke-miterlimit="10" stroke-linecap="round" stroke-linejoin="round"/>
<path d="M83.372 57.4065C84.7597 56.0187 86.1475 47.5289 86.1475 47.5289C86.1475 47.5289 85.9026 47.0391 85.0046 46.7942C84.0251 46.5493 83.6985 46.8758 83.6985 46.8758C83.6985 46.8758 80.923 55.0391 81.5761 56.9167L83.372 57.4065Z" stroke="#279653" stroke-width="1.9998" stroke-miterlimit="10"/>
<path d="M51.6142 5.7347C51.6142 5.7347 51.7774 2.38776 48.5938 1" stroke="#279653" stroke-width="1.9998" stroke-miterlimit="10" stroke-linecap="round"/>
<path d="M69.8192 71.6128C73.0845 73.1638 80.1049 76.4291 85.9008 79.2863C93.7376 83.123 93.9009 90.2251 93.9009 90.2251C93.9009 90.2251 85.1662 97.0006 47.6967 97.0006C10.2273 97.0006 1.57422 90.2251 1.57422 90.2251C1.57422 90.2251 1.73749 83.123 9.57423 79.2863C17.411 75.4495 27.4518 70.7148 27.4518 70.7148" stroke="#279653" stroke-width="1.9998" stroke-miterlimit="10" stroke-linecap="round" stroke-linejoin="round"/>
<path d="M69.8203 42.8758C71.6979 42.5493 73.0856 40.9166 73.0856 38.9574C73.0856 37.0799 71.7795 35.5289 70.0652 35.0391" stroke="#279653" stroke-width="1.9998" stroke-miterlimit="10" stroke-linejoin="round"/>
<path d="M27.4531 25.082V34.6331" stroke="#279653" stroke-width="1.9998" stroke-miterlimit="10"/>
<path d="M69.8203 53.4079V29.7344" stroke="#279653" stroke-width="1.9998" stroke-miterlimit="10"/>
<path d="M69.8203 67.7755V57" stroke="#279653" stroke-width="1.9998" stroke-miterlimit="10"/>
<path d="M60.1877 58.9609C59.1264 59.9405 57.4938 60.9201 55.2081 60.9201C52.9223 60.9201 51.1264 59.9405 49.8203 58.9609" stroke="#279653" stroke-width="1.9998" stroke-miterlimit="10" stroke-linejoin="round"/>
<path d="M28.838 43.7772H26.8788C24.1849 43.7772 22.0625 41.6547 22.0625 38.9609C22.0625 36.267 24.1849 34.1445 26.8788 34.1445H29.0829V35.7772H26.8788C25.0829 35.7772 23.6952 37.1649 23.6952 38.9609C23.6952 40.7568 25.0829 42.1445 26.8788 42.1445H28.838V43.7772Z" fill="#279653"/>
<path d="M55.3711 48.8364H58.718C60.2691 48.8364 61.4935 47.6119 61.4935 46.0609C61.4935 44.5099 60.2691 43.2854 58.718 43.2854H57.4119V37.7344" stroke="#279653" stroke-width="1.9998" stroke-miterlimit="10" stroke-linecap="round" stroke-linejoin="round"/>
<path d="M43.8592 38.4684C44.7609 38.4684 45.4919 37.7375 45.4919 36.8358C45.4919 35.9341 44.7609 35.2031 43.8592 35.2031C42.9575 35.2031 42.2266 35.9341 42.2266 36.8358C42.2266 37.7375 42.9575 38.4684 43.8592 38.4684Z" fill="#279653" stroke="#279653" stroke-width="1.6665" stroke-miterlimit="10" stroke-linejoin="round"/>
<path d="M38.9609 35.2031H48.5936" stroke="#279653" stroke-width="1.9998" stroke-miterlimit="10" stroke-linecap="round" stroke-linejoin="round"/>
<path d="M65.2498 38.4684C66.1515 38.4684 66.8825 37.7375 66.8825 36.8358C66.8825 35.9341 66.1515 35.2031 65.2498 35.2031C64.3482 35.2031 63.6172 35.9341 63.6172 36.8358C63.6172 37.7375 64.3482 38.4684 65.2498 38.4684Z" fill="#279653" stroke="#279653" stroke-width="1.6665" stroke-miterlimit="10" stroke-linejoin="round"/>
<path d="M60.4297 35.2031H68.9195" stroke="#279653" stroke-width="1.9998" stroke-miterlimit="10" stroke-linecap="round" stroke-linejoin="round"/>
<path d="M57.494 65.9796C57.1674 65.7347 56.8409 65.4898 56.5144 65.4082C53.4123 64.3469 52.4327 67.0408 49.9021 67.9388C47.6164 68.7551 45.1674 69.1633 42.7184 69.2449C37.6572 69.4082 31.7797 67.6939 31.7797 61.6531C31.7797 58.4694 31.7797 54.7959 31.7797 50.1428C31.7797 45.4898 27.4531 45.653 27.4531 45.653V72.1021C27.4531 83.7755 49.2491 85.898 54.3919 85.898C59.5348 85.898 69.8205 83.8572 69.8205 72.1021V66.4694C68.0246 69.5714 62.7185 69.3265 59.8613 68.0204C58.8817 67.5306 58.2287 66.6327 57.494 65.9796Z" stroke="#279653" stroke-width="1.9998" stroke-miterlimit="10" stroke-linecap="round" stroke-linejoin="round"/>
<path d="M27.3711 23.8555V28.5902V34.8759C27.3711 34.8759 32.5956 35.2024 33.4935 30.1412V28.5085V28.4269V27.284C33.5752 26.7126 33.7384 26.3045 33.9833 25.8963" stroke="#279653" stroke-width="1.9998" stroke-miterlimit="10" stroke-linecap="round" stroke-linejoin="round"/>
<path d="M55.3706 55.5311C57.4931 60.3474 63.8604 59.123 68.7584 57.2454C71.3706 56.2658 72.3503 54.225 72.3503 52.5107C67.8605 55.6944 62.391 50.5515 55.6155 52.2658H55.289C49.1666 49.8984 42.391 55.0413 38.4727 52.5107C38.4727 53.8985 39.6155 56.1842 42.0645 57.2454C46.7176 59.3679 53.2482 60.3474 55.3706 55.5311Z" stroke="#279653" stroke-width="1.9998" stroke-miterlimit="10" stroke-linecap="round" stroke-linejoin="round"/>
<path d="M27.5321 24.7532L69.8179 29.9777C69.8179 29.9777 90.471 9.6511 52.675 4.75313C13.328 -0.308099 27.5321 24.7532 27.5321 24.7532Z" stroke="#279653" stroke-width="1.9998" stroke-miterlimit="10" stroke-linejoin="round"/>
<path d="M50.1476 31.4492C50.1476 31.4492 44.7599 32.0206 37.9844 32.1023" stroke="#279653" stroke-width="1.9998" stroke-miterlimit="10" stroke-linecap="round"/>
<path d="M59.2891 31.4492C59.2891 31.4492 63.7789 31.939 69.738 32.1023" stroke="#279653" stroke-width="1.9998" stroke-miterlimit="10" stroke-linecap="round"/>
<path d="M13.1641 77.5703V94.1418" stroke="#279653" stroke-width="1.9998" stroke-miterlimit="10" stroke-linejoin="round"/>
<path d="M76.1058 74.6324V89.3263H47.7793H19.3711V74.5508" stroke="#279653" stroke-width="1.9998" stroke-miterlimit="10" stroke-linejoin="round"/>
<path d="M82.3906 94.1418V77.5703" stroke="#279653" stroke-width="1.9998" stroke-miterlimit="10" stroke-linejoin="round"/>
<path d="M27.4531 43.0391V45.5697" stroke="#279653" stroke-width="1.9998" stroke-miterlimit="10"/>
</svg>
