<svg width="94" height="98" viewBox="0 0 94 98" fill="none" xmlns="http://www.w3.org/2000/svg">
<path d="M24.1914 43.5923V68.6693C24.1914 80.8495 46.88 83.5562 52.1343 83.5562C57.4681 83.5562 68.1357 80.8495 68.1357 68.6693V41.3633" stroke="#219653" stroke-width="1.9998" stroke-miterlimit="10"/>
<path d="M68.2148 31.1724V22.9727" stroke="#219653" stroke-width="1.9998" stroke-miterlimit="10"/>
<path d="M27.0335 43.727H25.2248C22.7943 43.727 20.7891 41.7218 20.7891 39.2912C20.7891 36.8607 22.7943 34.8555 25.2248 34.8555H27.0335V35.4477H25.2248C23.1177 35.4477 21.3812 37.1841 21.3812 39.2912C21.3812 41.3984 23.1177 43.1348 25.2248 43.1348H27.0335V43.727Z" stroke="#219653"/>
<path d="M68.2139 67.3157C66.144 70.8185 63.1188 71.933 58.1831 70.1816C56.8297 69.704 56.1133 66.1215 53.725 66.1215C51.3367 66.1215 50.6998 69.5447 49.1872 69.9428C40.9875 71.933 28.7276 72.6495 28.7276 62.2207C28.7276 58.9567 28.7276 60.3897 28.7276 55.5335C28.7276 50.6773 24.2695 50.8365 24.2695 50.8365" stroke="#219653" stroke-width="1.9998" stroke-miterlimit="10" stroke-linecap="round" stroke-linejoin="round"/>
<path d="M76.5749 1C76.5749 1 73.6293 3.62712 69.3304 3.62712C59.5385 3.62712 42.9797 3.62712 40.6711 3.62712C28.4909 3.62712 23.9531 10.7919 23.9531 22.9722V27.908V34.4359C23.9531 34.4359 29.3666 34.834 30.3219 29.5798V27.908V27.8283V26.6342C30.8791 23.4498 33.6655 23.0518 34.7004 23.0518C34.78 23.0518 34.9392 23.0518 35.0188 23.0518C45.8457 23.0518 61.5287 23.0518 67.8975 23.0518C78.3263 22.9722 76.5749 1 76.5749 1Z" stroke="#219653" stroke-width="1.9998" stroke-miterlimit="10" stroke-linecap="round" stroke-linejoin="round"/>
<path d="M33.6642 32.2852H29.0469" stroke="#219653" stroke-width="1.9998" stroke-miterlimit="10" stroke-linejoin="round"/>
<path d="M53.1694 57.6025C55.3188 62.6179 62.0856 61.583 67.0214 59.4335C68.4544 58.7967 69.8077 58.0802 70.763 57.3637C66.1457 60.7073 60.6526 50.8357 53.3286 51.6318H52.9305C45.6065 50.8357 40.1134 60.7073 35.4961 57.3637C36.4514 58.0802 37.8048 58.7967 39.2377 59.4335C44.2531 61.5034 51.0199 62.6179 53.1694 57.6025Z" stroke="#219653" stroke-width="1.9998" stroke-miterlimit="10" stroke-linecap="round" stroke-linejoin="round"/>
<path d="M7.3125 79.4937V91.8331C10.0988 92.7088 13.9201 93.7437 18.9354 94.6194V75.4336C14.7161 76.4685 11.1338 77.5035 9.06391 78.5384C8.42704 78.7772 7.86977 79.0956 7.3125 79.4937Z" stroke="#219653" stroke-width="1.9998" stroke-miterlimit="10" stroke-linejoin="round"/>
<path d="M74.1055 75.1953V94.6996C78.9616 93.9035 82.7829 92.9482 85.7285 91.9929V78.937C85.41 78.7777 85.1712 78.6185 84.8527 78.4593C82.6237 77.4244 78.6432 76.3098 74.1055 75.1953Z" stroke="#219653" stroke-width="1.9998" stroke-miterlimit="10" stroke-linejoin="round"/>
<path d="M35.5756 30.2969C40.1134 30.6153 50.4626 31.2522 51.5771 31.2522C51.5771 31.2522 49.9849 31.889 49.2684 36.4268C48.552 41.3626 46.6413 41.9994 44.7307 41.9198C42.7405 41.8402 37.8047 41.4422 37.8047 41.4422C37.8047 41.4422 34.3815 41.2829 34.063 36.5064C33.9038 34.0385 33.8242 32.5259 33.8242 31.5706C33.8242 30.3765 34.8591 30.2969 35.5756 30.2969Z" stroke="#219653" stroke-width="1.9998" stroke-miterlimit="10" stroke-linejoin="round"/>
<path d="M49.2999 31.9404L50.2374 31.8484L49.5821 32.9406C49.5694 32.619 49.5122 32.3283 49.3817 32.0778C49.3564 32.0293 49.3291 31.9835 49.2999 31.9404Z" stroke="#219653"/>
<path d="M54.2043 31.2539H51.418" stroke="#219653" stroke-width="1.9998" stroke-miterlimit="10" stroke-linejoin="round"/>
<path d="M69.8062 30.2969C65.2685 30.6153 54.9192 31.2522 53.8047 31.2522C53.8047 31.2522 55.3969 31.889 56.1134 36.4268C56.8299 41.3626 58.7405 41.9994 60.6511 41.9198C62.6413 41.8402 67.5771 41.4422 67.5771 41.4422C67.5771 41.4422 71.0003 41.2829 71.3187 36.5064C71.478 34.0385 71.5576 32.5259 71.5576 31.5706C71.478 30.3765 70.5227 30.2969 69.8062 30.2969Z" stroke="#219653" stroke-width="1.9998" stroke-miterlimit="10" stroke-linejoin="round"/>
<path d="M55.1429 31.8484L56.0805 31.9404C56.0513 31.9835 56.024 32.0292 55.9987 32.0778C55.8682 32.3283 55.811 32.619 55.7983 32.9406L55.1429 31.8484Z" stroke="#219653"/>
<path d="M52.5312 49.4833H56.0341C57.6263 49.4833 58.9 48.2095 58.9 46.6174C58.9 45.0252 57.6263 43.7514 56.0341 43.7514H54.6807L53.6458 38.0195" stroke="#219653" stroke-width="1.9998" stroke-miterlimit="10" stroke-linecap="round" stroke-linejoin="round"/>
<path d="M63.121 37.3827C64.0443 37.3827 64.7928 36.6342 64.7928 35.7109C64.7928 34.7876 64.0443 34.0391 63.121 34.0391C62.1977 34.0391 61.4492 34.7876 61.4492 35.7109C61.4492 36.6342 62.1977 37.3827 63.121 37.3827Z" stroke="#219653" stroke-width="1.9998" stroke-miterlimit="10" stroke-linejoin="round"/>
<path d="M67.8973 34.0394C62.8819 32.5269 58.7422 34.0394 58.7422 34.0394" stroke="#219653" stroke-width="1.9998" stroke-miterlimit="10" stroke-linecap="round" stroke-linejoin="round"/>
<path d="M41.2265 37.3827C42.1498 37.3827 42.8983 36.6342 42.8983 35.7109C42.8983 34.7876 42.1498 34.0391 41.2265 34.0391C40.3032 34.0391 39.5547 34.7876 39.5547 35.7109C39.5547 36.6342 40.3032 37.3827 41.2265 37.3827Z" stroke="#219653" stroke-width="1.9998" stroke-miterlimit="10" stroke-linejoin="round"/>
<path d="M37.0078 34.0394C42.0232 32.5269 46.1629 34.0394 46.1629 34.0394" stroke="#219653" stroke-width="1.9998" stroke-miterlimit="10" stroke-linecap="round" stroke-linejoin="round"/>
<path d="M67.9758 73.8438C74.9814 75.2767 81.6686 76.9485 84.8529 78.4611C92.575 82.2824 92.8139 89.288 92.8139 89.288C92.8139 89.288 79.7579 96.7712 47.0385 96.7712C14.3191 96.7712 1.18359 89.288 1.18359 89.288C1.18359 89.288 1.34281 82.2824 9.14452 78.4611C12.2493 76.9485 18.7772 75.2767 25.544 73.8438" stroke="#219653" stroke-width="1.9998" stroke-miterlimit="10" stroke-linecap="round" stroke-linejoin="round"/>
<path d="M50.3023 83.7148C50.4615 87.6953 50.2227 92.8699 50.2227 96.4523" stroke="#219653" stroke-width="1.9998" stroke-miterlimit="10" stroke-linejoin="round"/>
</svg>
