<svg width="44" height="44" viewBox="0 0 44 44" fill="none" xmlns="http://www.w3.org/2000/svg">
<circle cx="22" cy="22" r="22" fill="#E8F3ED"/>
<path d="M18.1429 34.0006C18.774 34.0006 19.2857 33.4889 19.2857 32.8577C19.2857 32.2265 18.774 31.7148 18.1429 31.7148C17.5117 31.7148 17 32.2265 17 32.8577C17 33.4889 17.5117 34.0006 18.1429 34.0006Z" stroke="#219653" stroke-width="1.5" stroke-linecap="round" stroke-linejoin="round"/>
<path d="M30.7132 34.0006C31.3444 34.0006 31.856 33.4889 31.856 32.8577C31.856 32.2265 31.3444 31.7148 30.7132 31.7148C30.082 31.7148 29.5703 32.2265 29.5703 32.8577C29.5703 33.4889 30.082 34.0006 30.7132 34.0006Z" stroke="#219653" stroke-width="1.5" stroke-linecap="round" stroke-linejoin="round"/>
<path d="M9 10H13.5714L16.6343 25.3029C16.7388 25.8291 17.0251 26.3017 17.4429 26.6381C17.8608 26.9745 18.3837 27.1532 18.92 27.1429H30.0287C30.565 27.1532 31.0879 26.9745 31.5058 26.6381C31.9236 26.3017 32.2099 25.8291 32.3144 25.3029L34.143 15.7143H14.7143" stroke="#219653" stroke-width="1.5" stroke-linecap="round" stroke-linejoin="round"/>
</svg>
