<svg width="36" height="36" viewBox="0 0 36 36" fill="none" xmlns="http://www.w3.org/2000/svg">
<path d="M15 35.8C6.5 34.3 0 26.9 0 18C0 8.1 8.1 0 18 0C27.9 0 36 8.1 36 18C36 26.9 29.5 34.3 21 35.8L20 35H16L15 35.8Z" fill="url(#paint0_linear_33_60377)"/>
<path d="M25 23L25.8 18H21V14.5C21 13.1 21.5 12 23.7 12H26V7.4C24.7 7.2 23.3 7 22 7C17.9 7 15 9.5 15 14V18H10.5V23H15V35.7C16 35.9 17 36 18 36C19 36 20 35.9 21 35.7V23H25Z" fill="white"/>
<defs>
<linearGradient id="paint0_linear_33_60377" x1="18" y1="34.754" x2="18" y2="0" gradientUnits="userSpaceOnUse">
<stop stop-color="#0062E0"/>
<stop offset="1" stop-color="#19AFFF"/>
</linearGradient>
</defs>
</svg>
