<svg width="15" height="15" viewBox="0 0 15 15" fill="none" xmlns="http://www.w3.org/2000/svg">
<g opacity="0.4">
<path d="M7.5 14C11.0899 14 14 11.0899 14 7.5C14 3.91015 11.0899 1 7.5 1C3.91015 1 1 3.91015 1 7.5C1 11.0899 3.91015 14 7.5 14Z" fill="white" stroke="#6E6E6E" stroke-linecap="round" stroke-linejoin="round"/>
<path d="M5.60938 5.549C5.76219 5.11459 6.06382 4.74827 6.46085 4.51494C6.85787 4.28161 7.32466 4.19631 7.77854 4.27417C8.23242 4.35202 8.64411 4.58799 8.94068 4.9403C9.23724 5.2926 9.39956 5.73849 9.39887 6.199C9.39887 7.499 7.44887 8.149 7.44887 8.149" stroke="#6E6E6E" stroke-linecap="round" stroke-linejoin="round"/>
<path d="M7.5 10.75H7.507" stroke="#6E6E6E" stroke-linecap="round" stroke-linejoin="round"/>
</g>
</svg>
