<svg width="44" height="44" viewBox="0 0 44 44" fill="none" xmlns="http://www.w3.org/2000/svg">
<circle cx="22" cy="22" r="22" fill="#E8F3ED"/>
<path d="M24 10H14.4C13.7635 10 13.153 10.2529 12.7029 10.7029C12.2529 11.153 12 11.7635 12 12.4V31.6C12 32.2365 12.2529 32.847 12.7029 33.2971C13.153 33.7471 13.7635 34 14.4 34H28.8C29.4365 34 30.047 33.7471 30.4971 33.2971C30.9471 32.847 31.2 32.2365 31.2 31.6V17.2L24 10Z" stroke="#219653" stroke-width="1.5" stroke-linecap="round" stroke-linejoin="round"/>
<path d="M24 10V17.2H31.2" stroke="#219653" stroke-width="1.5" stroke-linecap="round" stroke-linejoin="round"/>
<path d="M26.4008 23.1992H16.8008" stroke="#219653" stroke-width="1.5" stroke-linecap="round" stroke-linejoin="round"/>
<path d="M26.4008 28H16.8008" stroke="#219653" stroke-width="1.5" stroke-linecap="round" stroke-linejoin="round"/>
<path d="M19.2008 18.3984H18.0008H16.8008" stroke="#219653" stroke-width="1.5" stroke-linecap="round" stroke-linejoin="round"/>
</svg>
