<svg width="44" height="44" viewBox="0 0 44 44" fill="none" xmlns="http://www.w3.org/2000/svg">
<circle cx="22" cy="22" r="22" fill="#E8F3ED"/>
<path d="M21.9993 25.272C23.8068 25.272 25.272 23.8068 25.272 21.9993C25.272 20.1918 23.8068 18.7266 21.9993 18.7266C20.1918 18.7266 18.7266 20.1918 18.7266 21.9993C18.7266 23.8068 20.1918 25.272 21.9993 25.272Z" stroke="#219653" stroke-width="1.5" stroke-linecap="round" stroke-linejoin="round"/>
<path d="M30.0727 25.2727C29.9275 25.6018 29.8842 25.9668 29.9484 26.3206C30.0125 26.6745 30.1812 27.0011 30.4327 27.2582L30.4982 27.3236C30.701 27.5263 30.862 27.7669 30.9718 28.0318C31.0816 28.2966 31.1381 28.5805 31.1381 28.8673C31.1381 29.154 31.0816 29.4379 30.9718 29.7028C30.862 29.9676 30.701 30.2083 30.4982 30.4109C30.2956 30.6138 30.0549 30.7747 29.7901 30.8845C29.5252 30.9943 29.2413 31.0508 28.9545 31.0508C28.6678 31.0508 28.3839 30.9943 28.119 30.8845C27.8542 30.7747 27.6135 30.6138 27.4109 30.4109L27.3455 30.3455C27.0884 30.094 26.7618 29.9253 26.4079 29.8611C26.054 29.7969 25.689 29.8402 25.36 29.9855C25.0373 30.1237 24.7622 30.3534 24.5683 30.646C24.3745 30.9387 24.2705 31.2817 24.2691 31.6327V31.8182C24.2691 32.3968 24.0392 32.9518 23.6301 33.361C23.2209 33.7701 22.6659 34 22.0873 34C21.5086 34 20.9537 33.7701 20.5445 33.361C20.1353 32.9518 19.9055 32.3968 19.9055 31.8182V31.72C19.897 31.3589 19.7801 31.0087 19.57 30.7149C19.3599 30.4212 19.0663 30.1974 18.7273 30.0727C18.3982 29.9275 18.0332 29.8842 17.6794 29.9484C17.3255 30.0125 16.9989 30.1812 16.7418 30.4327L16.6764 30.4982C16.4737 30.701 16.2331 30.862 15.9682 30.9718C15.7034 31.0816 15.4195 31.1381 15.1327 31.1381C14.846 31.1381 14.5621 31.0816 14.2972 30.9718C14.0324 30.862 13.7917 30.701 13.5891 30.4982C13.3862 30.2956 13.2253 30.0549 13.1155 29.7901C13.0057 29.5252 12.9492 29.2413 12.9492 28.9545C12.9492 28.6678 13.0057 28.3839 13.1155 28.119C13.2253 27.8542 13.3862 27.6135 13.5891 27.4109L13.6545 27.3455C13.906 27.0884 14.0747 26.7618 14.1389 26.4079C14.2031 26.054 14.1598 25.689 14.0145 25.36C13.8763 25.0373 13.6466 24.7622 13.354 24.5683C13.0613 24.3745 12.7183 24.2705 12.3673 24.2691H12.1818C11.6032 24.2691 11.0482 24.0392 10.639 23.6301C10.2299 23.2209 10 22.6659 10 22.0873C10 21.5086 10.2299 20.9537 10.639 20.5445C11.0482 20.1353 11.6032 19.9055 12.1818 19.9055H12.28C12.6411 19.897 12.9913 19.7801 13.2851 19.57C13.5788 19.3599 13.8026 19.0663 13.9273 18.7273C14.0725 18.3982 14.1158 18.0332 14.0516 17.6794C13.9875 17.3255 13.8188 16.9989 13.5673 16.7418L13.5018 16.6764C13.299 16.4737 13.138 16.2331 13.0282 15.9682C12.9184 15.7034 12.8619 15.4195 12.8619 15.1327C12.8619 14.846 12.9184 14.5621 13.0282 14.2972C13.138 14.0324 13.299 13.7917 13.5018 13.5891C13.7045 13.3862 13.9451 13.2253 14.2099 13.1155C14.4748 13.0057 14.7587 12.9492 15.0455 12.9492C15.3322 12.9492 15.6161 13.0057 15.881 13.1155C16.1458 13.2253 16.3865 13.3862 16.5891 13.5891L16.6545 13.6545C16.9117 13.906 17.2382 14.0747 17.5921 14.1389C17.946 14.2031 18.311 14.1598 18.64 14.0145H18.7273C19.0499 13.8763 19.3251 13.6466 19.5189 13.354C19.7128 13.0613 19.8168 12.7183 19.8182 12.3673V12.1818C19.8182 11.6032 20.0481 11.0482 20.4572 10.639C20.8664 10.2299 21.4213 10 22 10C22.5787 10 23.1336 10.2299 23.5428 10.639C23.9519 11.0482 24.1818 11.6032 24.1818 12.1818V12.28C24.1832 12.631 24.2872 12.974 24.4811 13.2667C24.6749 13.5594 24.9501 13.789 25.2727 13.9273C25.6018 14.0725 25.9668 14.1158 26.3206 14.0516C26.6745 13.9875 27.0011 13.8188 27.2582 13.5673L27.3236 13.5018C27.5263 13.299 27.7669 13.138 28.0318 13.0282C28.2966 12.9184 28.5805 12.8619 28.8673 12.8619C29.154 12.8619 29.4379 12.9184 29.7028 13.0282C29.9676 13.138 30.2083 13.299 30.4109 13.5018C30.6138 13.7045 30.7747 13.9451 30.8845 14.2099C30.9943 14.4748 31.0508 14.7587 31.0508 15.0455C31.0508 15.3322 30.9943 15.6161 30.8845 15.881C30.7747 16.1458 30.6138 16.3865 30.4109 16.5891L30.3455 16.6545C30.094 16.9117 29.9253 17.2382 29.8611 17.5921C29.7969 17.946 29.8402 18.311 29.9855 18.64V18.7273C30.1237 19.0499 30.3534 19.3251 30.646 19.5189C30.9387 19.7128 31.2817 19.8168 31.6327 19.8182H31.8182C32.3968 19.8182 32.9518 20.0481 33.361 20.4572C33.7701 20.8664 34 21.4213 34 22C34 22.5787 33.7701 23.1336 33.361 23.5428C32.9518 23.9519 32.3968 24.1818 31.8182 24.1818H31.72C31.369 24.1832 31.026 24.2872 30.7333 24.4811C30.4406 24.6749 30.211 24.9501 30.0727 25.2727V25.2727Z" stroke="#219653" stroke-width="1.5" stroke-linecap="round" stroke-linejoin="round"/>
</svg>
